# xmcd CD database file
#
# Track frame offsets:
#	150
#	15484
#	34635
#	50850
#	71002
#	92685
#	110025
#	125702
#	144605
#	163692
#	180620
#
# Disc length: 2885 seconds
#
# Revision: 3
# Processed by: cddbd v1.4PL0 Copyright (c) Steve Scherf et al.
# Submitted via: Feurio! 1.63 - http://www.feurio.com
#
DISCID=980b430b,9d0b430b
DTITLE=Branded - Ties Of Friendship
DYEAR=1994
DGENRE=blues
TTITLE0=Accusation
TTITLE1=Under Her Spell
TTITLE2=Shake It
TTITLE3=Life Or Survival
TTITLE4=Thunder Road
TTITLE5=Sugary Gun
TTITLE6=Got My Eyes On You
TTITLE7=Stop Yer Talk To Me
TTITLE8=Down On Me
TTITLE9=It's Alright
TTITLE10=The Awakening
EXTD=
EXTT0=
EXTT1=
EXTT2=
EXTT3=
EXTT4=
EXTT5=
EXTT6=
EXTT7=
EXTT8=
EXTT9=
EXTT10=
PLAYORDER=
